<mxfile host="app.diagrams.net" modified="2024-09-14T18:42:08.969Z" agent="Mozilla/5.0 (Windows NT 10.0; Win64; x64) AppleWebKit/537.36 (KHTML, like Gecko) Chrome/128.0.0.0 Safari/537.36" etag="YgZv1KF5mCpcChV7hNDW" version="24.4.13" type="device">
  <diagram name="Page-1" id="42789a77-a242-8287-6e28-9cd8cfd52e62">
    <mxGraphModel dx="1235" dy="673" grid="1" gridSize="10" guides="1" tooltips="1" connect="1" arrows="1" fold="1" page="1" pageScale="1" pageWidth="1100" pageHeight="850" background="none" math="0" shadow="0">
      <root>
        <mxCell id="0" />
        <mxCell id="1" parent="0" />
        <mxCell id="q1SniMykTE97WwqamMA--63" style="edgeStyle=none;curved=1;rounded=0;orthogonalLoop=1;jettySize=auto;html=1;exitX=0.75;exitY=0.1;exitDx=0;exitDy=0;exitPerimeter=0;entryX=0;entryY=0.5;entryDx=0;entryDy=0;fontSize=12;startSize=8;endSize=8;endArrow=none;endFill=0;" edge="1" parent="1" source="JfrAqy8fLK1CfZt83tNe-1" target="q1SniMykTE97WwqamMA--2">
          <mxGeometry relative="1" as="geometry" />
        </mxCell>
        <mxCell id="q1SniMykTE97WwqamMA--64" style="edgeStyle=none;curved=1;rounded=0;orthogonalLoop=1;jettySize=auto;html=1;exitX=0.5;exitY=0.5;exitDx=0;exitDy=0;exitPerimeter=0;entryX=0;entryY=0.5;entryDx=0;entryDy=0;fontSize=12;startSize=8;endSize=8;endArrow=none;endFill=0;" edge="1" parent="1" source="JfrAqy8fLK1CfZt83tNe-1" target="q1SniMykTE97WwqamMA--42">
          <mxGeometry relative="1" as="geometry" />
        </mxCell>
        <mxCell id="q1SniMykTE97WwqamMA--65" style="edgeStyle=none;curved=1;rounded=0;orthogonalLoop=1;jettySize=auto;html=1;exitX=1;exitY=1;exitDx=0;exitDy=0;exitPerimeter=0;entryX=0;entryY=0;entryDx=0;entryDy=0;fontSize=12;startSize=8;endSize=8;endArrow=none;endFill=0;" edge="1" parent="1" source="JfrAqy8fLK1CfZt83tNe-1" target="q1SniMykTE97WwqamMA--53">
          <mxGeometry relative="1" as="geometry" />
        </mxCell>
        <mxCell id="JfrAqy8fLK1CfZt83tNe-1" value="&lt;font style=&quot;font-size: 16px;&quot;&gt;Bibliotecario&lt;/font&gt;" style="shape=umlActor;verticalLabelPosition=bottom;verticalAlign=top;html=1;outlineConnect=0;fillColor=#008a00;strokeColor=#005700;shadow=0;fontColor=#0D0D0D;" parent="1" vertex="1">
          <mxGeometry x="220" y="435" width="40" height="80" as="geometry" />
        </mxCell>
        <mxCell id="q1SniMykTE97WwqamMA--16" value="" style="swimlane;startSize=0;" vertex="1" parent="1">
          <mxGeometry x="370" y="60" width="440" height="830" as="geometry" />
        </mxCell>
        <mxCell id="q1SniMykTE97WwqamMA--17" value="&lt;font style=&quot;font-size: 17px;&quot;&gt;EduLib&lt;/font&gt;" style="text;html=1;align=center;verticalAlign=middle;whiteSpace=wrap;rounded=0;" vertex="1" parent="q1SniMykTE97WwqamMA--16">
          <mxGeometry width="110" height="60" as="geometry" />
        </mxCell>
        <mxCell id="ruLH608j97HtI5u0mlMc-2" style="rounded=0;orthogonalLoop=1;jettySize=auto;html=1;exitX=0;exitY=0.5;exitDx=0;exitDy=0;endArrow=none;endFill=0;startArrow=classic;startFill=1;dashed=1;entryX=0.919;entryY=0.769;entryDx=0;entryDy=0;entryPerimeter=0;" parent="q1SniMykTE97WwqamMA--16" source="q1SniMykTE97WwqamMA--7" target="q1SniMykTE97WwqamMA--2" edge="1">
          <mxGeometry relative="1" as="geometry">
            <mxPoint x="234.5" y="310" as="sourcePoint" />
            <mxPoint x="344.5" y="310" as="targetPoint" />
          </mxGeometry>
        </mxCell>
        <mxCell id="ruLH608j97HtI5u0mlMc-3" value="&amp;lt;extends&amp;gt;" style="edgeLabel;html=1;align=center;verticalAlign=middle;resizable=0;points=[];" parent="ruLH608j97HtI5u0mlMc-2" vertex="1" connectable="0">
          <mxGeometry x="0.0705" y="1" relative="1" as="geometry">
            <mxPoint as="offset" />
          </mxGeometry>
        </mxCell>
        <mxCell id="Y5Qxqcbn9Gz8Wc6aOvu2-14" style="rounded=0;orthogonalLoop=1;jettySize=auto;html=1;exitX=0.042;exitY=0.67;exitDx=0;exitDy=0;endArrow=none;endFill=0;startArrow=classic;startFill=1;dashed=1;entryX=0.669;entryY=0.025;entryDx=0;entryDy=0;exitPerimeter=0;entryPerimeter=0;" parent="q1SniMykTE97WwqamMA--16" source="q1SniMykTE97WwqamMA--5" target="q1SniMykTE97WwqamMA--2" edge="1">
          <mxGeometry relative="1" as="geometry">
            <mxPoint x="92" y="60.00000000000023" as="sourcePoint" />
            <mxPoint x="202" y="60.00000000000023" as="targetPoint" />
          </mxGeometry>
        </mxCell>
        <mxCell id="Y5Qxqcbn9Gz8Wc6aOvu2-15" value="&amp;lt;extends&amp;gt;" style="edgeLabel;html=1;align=center;verticalAlign=middle;resizable=0;points=[];" parent="Y5Qxqcbn9Gz8Wc6aOvu2-14" vertex="1" connectable="0">
          <mxGeometry x="0.0705" y="1" relative="1" as="geometry">
            <mxPoint as="offset" />
          </mxGeometry>
        </mxCell>
        <mxCell id="q1SniMykTE97WwqamMA--2" value="Listar préstamos" style="ellipse;whiteSpace=wrap;html=1;" vertex="1" parent="q1SniMykTE97WwqamMA--16">
          <mxGeometry x="62" y="130" width="120" height="60" as="geometry" />
        </mxCell>
        <mxCell id="q1SniMykTE97WwqamMA--5" value="Agregar préstamo" style="ellipse;whiteSpace=wrap;html=1;" vertex="1" parent="q1SniMykTE97WwqamMA--16">
          <mxGeometry x="232" y="30" width="85" height="60" as="geometry" />
        </mxCell>
        <mxCell id="q1SniMykTE97WwqamMA--6" value="&amp;nbsp;Eliminar préstamo" style="ellipse;whiteSpace=wrap;html=1;" vertex="1" parent="q1SniMykTE97WwqamMA--16">
          <mxGeometry x="282" y="100" width="85" height="60" as="geometry" />
        </mxCell>
        <mxCell id="q1SniMykTE97WwqamMA--7" value="&amp;nbsp;Modificar préstamo" style="ellipse;whiteSpace=wrap;html=1;" vertex="1" parent="q1SniMykTE97WwqamMA--16">
          <mxGeometry x="272" y="170" width="85" height="60" as="geometry" />
        </mxCell>
        <mxCell id="q1SniMykTE97WwqamMA--8" style="rounded=0;orthogonalLoop=1;jettySize=auto;html=1;exitX=0;exitY=0.5;exitDx=0;exitDy=0;endArrow=none;endFill=0;startArrow=classic;startFill=1;dashed=1;entryX=1;entryY=0;entryDx=0;entryDy=0;" edge="1" parent="q1SniMykTE97WwqamMA--16" source="q1SniMykTE97WwqamMA--6" target="q1SniMykTE97WwqamMA--2">
          <mxGeometry relative="1" as="geometry">
            <mxPoint x="188" y="160" as="sourcePoint" />
            <mxPoint x="116" y="199" as="targetPoint" />
          </mxGeometry>
        </mxCell>
        <mxCell id="q1SniMykTE97WwqamMA--9" value="&amp;lt;extends&amp;gt;" style="edgeLabel;html=1;align=center;verticalAlign=middle;resizable=0;points=[];" vertex="1" connectable="0" parent="q1SniMykTE97WwqamMA--8">
          <mxGeometry x="0.0705" y="1" relative="1" as="geometry">
            <mxPoint as="offset" />
          </mxGeometry>
        </mxCell>
        <mxCell id="q1SniMykTE97WwqamMA--13" value="Ver historial de préstamos" style="ellipse;whiteSpace=wrap;html=1;" vertex="1" parent="q1SniMykTE97WwqamMA--16">
          <mxGeometry x="197" y="240" width="120" height="60" as="geometry" />
        </mxCell>
        <mxCell id="q1SniMykTE97WwqamMA--36" style="rounded=0;orthogonalLoop=1;jettySize=auto;html=1;exitX=0;exitY=0;exitDx=0;exitDy=0;endArrow=none;endFill=0;startArrow=classic;startFill=1;dashed=1;entryX=1;entryY=1;entryDx=0;entryDy=0;" edge="1" source="q1SniMykTE97WwqamMA--45" target="q1SniMykTE97WwqamMA--42" parent="q1SniMykTE97WwqamMA--16">
          <mxGeometry relative="1" as="geometry">
            <mxPoint x="202.5" y="610" as="sourcePoint" />
            <mxPoint x="312.5" y="610" as="targetPoint" />
          </mxGeometry>
        </mxCell>
        <mxCell id="q1SniMykTE97WwqamMA--37" value="&amp;lt;extends&amp;gt;" style="edgeLabel;html=1;align=center;verticalAlign=middle;resizable=0;points=[];" vertex="1" connectable="0" parent="q1SniMykTE97WwqamMA--36">
          <mxGeometry x="0.0705" y="1" relative="1" as="geometry">
            <mxPoint as="offset" />
          </mxGeometry>
        </mxCell>
        <mxCell id="q1SniMykTE97WwqamMA--40" style="rounded=0;orthogonalLoop=1;jettySize=auto;html=1;exitX=0.042;exitY=0.67;exitDx=0;exitDy=0;endArrow=none;endFill=0;startArrow=classic;startFill=1;dashed=1;entryX=1;entryY=0;entryDx=0;entryDy=0;exitPerimeter=0;" edge="1" source="q1SniMykTE97WwqamMA--43" target="q1SniMykTE97WwqamMA--42" parent="q1SniMykTE97WwqamMA--16">
          <mxGeometry relative="1" as="geometry">
            <mxPoint x="60" y="360.0000000000002" as="sourcePoint" />
            <mxPoint x="170" y="360.0000000000002" as="targetPoint" />
          </mxGeometry>
        </mxCell>
        <mxCell id="q1SniMykTE97WwqamMA--41" value="&amp;lt;extends&amp;gt;" style="edgeLabel;html=1;align=center;verticalAlign=middle;resizable=0;points=[];" vertex="1" connectable="0" parent="q1SniMykTE97WwqamMA--40">
          <mxGeometry x="0.0705" y="1" relative="1" as="geometry">
            <mxPoint as="offset" />
          </mxGeometry>
        </mxCell>
        <mxCell id="q1SniMykTE97WwqamMA--42" value="Listar préstamos&lt;div&gt;de libros&lt;/div&gt;" style="ellipse;whiteSpace=wrap;html=1;" vertex="1" parent="q1SniMykTE97WwqamMA--16">
          <mxGeometry x="60" y="400" width="120" height="60" as="geometry" />
        </mxCell>
        <mxCell id="q1SniMykTE97WwqamMA--43" value="Agregar préstamo de libro" style="ellipse;whiteSpace=wrap;html=1;" vertex="1" parent="q1SniMykTE97WwqamMA--16">
          <mxGeometry x="230" y="330" width="85" height="60" as="geometry" />
        </mxCell>
        <mxCell id="q1SniMykTE97WwqamMA--44" value="&amp;nbsp;Eliminar préstamo de libro" style="ellipse;whiteSpace=wrap;html=1;" vertex="1" parent="q1SniMykTE97WwqamMA--16">
          <mxGeometry x="260" y="400" width="85" height="60" as="geometry" />
        </mxCell>
        <mxCell id="q1SniMykTE97WwqamMA--45" value="&amp;nbsp;Modificar préstamo de libro" style="ellipse;whiteSpace=wrap;html=1;" vertex="1" parent="q1SniMykTE97WwqamMA--16">
          <mxGeometry x="230" y="470" width="85" height="60" as="geometry" />
        </mxCell>
        <mxCell id="q1SniMykTE97WwqamMA--46" style="rounded=0;orthogonalLoop=1;jettySize=auto;html=1;exitX=0;exitY=0.5;exitDx=0;exitDy=0;endArrow=none;endFill=0;startArrow=classic;startFill=1;dashed=1;entryX=1;entryY=0.5;entryDx=0;entryDy=0;" edge="1" source="q1SniMykTE97WwqamMA--44" target="q1SniMykTE97WwqamMA--42" parent="q1SniMykTE97WwqamMA--16">
          <mxGeometry relative="1" as="geometry">
            <mxPoint x="156" y="460" as="sourcePoint" />
            <mxPoint x="84" y="499" as="targetPoint" />
          </mxGeometry>
        </mxCell>
        <mxCell id="q1SniMykTE97WwqamMA--47" value="&amp;lt;extends&amp;gt;" style="edgeLabel;html=1;align=center;verticalAlign=middle;resizable=0;points=[];" vertex="1" connectable="0" parent="q1SniMykTE97WwqamMA--46">
          <mxGeometry x="0.0705" y="1" relative="1" as="geometry">
            <mxPoint as="offset" />
          </mxGeometry>
        </mxCell>
        <mxCell id="q1SniMykTE97WwqamMA--60" style="rounded=0;orthogonalLoop=1;jettySize=auto;html=1;exitX=0;exitY=0;exitDx=0;exitDy=0;endArrow=none;endFill=0;startArrow=classic;startFill=1;dashed=1;entryX=0.699;entryY=0.985;entryDx=0;entryDy=0;entryPerimeter=0;" edge="1" parent="q1SniMykTE97WwqamMA--16" source="q1SniMykTE97WwqamMA--13" target="q1SniMykTE97WwqamMA--2">
          <mxGeometry relative="1" as="geometry">
            <mxPoint x="282" y="210" as="sourcePoint" />
            <mxPoint x="182" y="186" as="targetPoint" />
          </mxGeometry>
        </mxCell>
        <mxCell id="q1SniMykTE97WwqamMA--61" value="&amp;lt;extends&amp;gt;" style="edgeLabel;html=1;align=center;verticalAlign=middle;resizable=0;points=[];" vertex="1" connectable="0" parent="q1SniMykTE97WwqamMA--60">
          <mxGeometry x="0.0705" y="1" relative="1" as="geometry">
            <mxPoint as="offset" />
          </mxGeometry>
        </mxCell>
        <mxCell id="q1SniMykTE97WwqamMA--49" style="rounded=0;orthogonalLoop=1;jettySize=auto;html=1;exitX=0;exitY=0;exitDx=0;exitDy=0;endArrow=none;endFill=0;startArrow=classic;startFill=1;dashed=1;entryX=1;entryY=1;entryDx=0;entryDy=0;" edge="1" source="q1SniMykTE97WwqamMA--56" target="q1SniMykTE97WwqamMA--53" parent="q1SniMykTE97WwqamMA--16">
          <mxGeometry relative="1" as="geometry">
            <mxPoint x="212.5" y="840" as="sourcePoint" />
            <mxPoint x="322.5" y="840" as="targetPoint" />
          </mxGeometry>
        </mxCell>
        <mxCell id="q1SniMykTE97WwqamMA--50" value="&amp;lt;extends&amp;gt;" style="edgeLabel;html=1;align=center;verticalAlign=middle;resizable=0;points=[];" vertex="1" connectable="0" parent="q1SniMykTE97WwqamMA--49">
          <mxGeometry x="0.0705" y="1" relative="1" as="geometry">
            <mxPoint as="offset" />
          </mxGeometry>
        </mxCell>
        <mxCell id="q1SniMykTE97WwqamMA--51" style="rounded=0;orthogonalLoop=1;jettySize=auto;html=1;exitX=0.042;exitY=0.67;exitDx=0;exitDy=0;endArrow=none;endFill=0;startArrow=classic;startFill=1;dashed=1;entryX=1;entryY=0;entryDx=0;entryDy=0;exitPerimeter=0;" edge="1" source="q1SniMykTE97WwqamMA--54" target="q1SniMykTE97WwqamMA--53" parent="q1SniMykTE97WwqamMA--16">
          <mxGeometry relative="1" as="geometry">
            <mxPoint x="70" y="590.0000000000002" as="sourcePoint" />
            <mxPoint x="180" y="590.0000000000002" as="targetPoint" />
          </mxGeometry>
        </mxCell>
        <mxCell id="q1SniMykTE97WwqamMA--52" value="&amp;lt;extends&amp;gt;" style="edgeLabel;html=1;align=center;verticalAlign=middle;resizable=0;points=[];" vertex="1" connectable="0" parent="q1SniMykTE97WwqamMA--51">
          <mxGeometry x="0.0705" y="1" relative="1" as="geometry">
            <mxPoint as="offset" />
          </mxGeometry>
        </mxCell>
        <mxCell id="q1SniMykTE97WwqamMA--53" value="Mostrar calendario de reservas" style="ellipse;whiteSpace=wrap;html=1;" vertex="1" parent="q1SniMykTE97WwqamMA--16">
          <mxGeometry x="60" y="620" width="130" height="70" as="geometry" />
        </mxCell>
        <mxCell id="q1SniMykTE97WwqamMA--54" value="Agregar reserva" style="ellipse;whiteSpace=wrap;html=1;" vertex="1" parent="q1SniMykTE97WwqamMA--16">
          <mxGeometry x="240" y="560" width="85" height="60" as="geometry" />
        </mxCell>
        <mxCell id="q1SniMykTE97WwqamMA--55" value="&amp;nbsp;Eliminar reserva" style="ellipse;whiteSpace=wrap;html=1;" vertex="1" parent="q1SniMykTE97WwqamMA--16">
          <mxGeometry x="270" y="630" width="85" height="60" as="geometry" />
        </mxCell>
        <mxCell id="q1SniMykTE97WwqamMA--56" value="&amp;nbsp;Modificar reserva" style="ellipse;whiteSpace=wrap;html=1;" vertex="1" parent="q1SniMykTE97WwqamMA--16">
          <mxGeometry x="240" y="700" width="85" height="60" as="geometry" />
        </mxCell>
        <mxCell id="q1SniMykTE97WwqamMA--57" style="rounded=0;orthogonalLoop=1;jettySize=auto;html=1;exitX=0;exitY=0.5;exitDx=0;exitDy=0;endArrow=none;endFill=0;startArrow=classic;startFill=1;dashed=1;entryX=1;entryY=0.5;entryDx=0;entryDy=0;" edge="1" source="q1SniMykTE97WwqamMA--55" target="q1SniMykTE97WwqamMA--53" parent="q1SniMykTE97WwqamMA--16">
          <mxGeometry relative="1" as="geometry">
            <mxPoint x="166" y="690" as="sourcePoint" />
            <mxPoint x="94" y="729" as="targetPoint" />
          </mxGeometry>
        </mxCell>
        <mxCell id="q1SniMykTE97WwqamMA--58" value="&amp;lt;extends&amp;gt;" style="edgeLabel;html=1;align=center;verticalAlign=middle;resizable=0;points=[];" vertex="1" connectable="0" parent="q1SniMykTE97WwqamMA--57">
          <mxGeometry x="0.0705" y="1" relative="1" as="geometry">
            <mxPoint as="offset" />
          </mxGeometry>
        </mxCell>
      </root>
    </mxGraphModel>
  </diagram>
</mxfile>
